<?xml version="1.0" encoding="utf-8"?>
<!-- Generator: Adobe Illustrator 25.0.0, SVG Export Plug-In . SVG Version: 6.00 Build 0)  -->
<svg version="1.1" id="Layer_1" xmlns="http://www.w3.org/2000/svg" xmlns:xlink="http://www.w3.org/1999/xlink" x="0px" y="0px"
	 viewBox="0 0 186 26" style="enable-background:new 0 0 186 26;" xml:space="preserve">
<style type="text/css">
	.st0{display:none;}
	.st1{display:none;fill:none;stroke:#FFFFFF;stroke-width:2;stroke-linecap:round;stroke-linejoin:round;stroke-miterlimit:10;}
	.st2{display:inline;fill:none;stroke:#FFFFFF;stroke-width:2;stroke-linecap:round;stroke-linejoin:round;stroke-miterlimit:10;}
	
		.st3{display:inline;fill:#FFFFFF;stroke:#FFFFFF;stroke-width:2;stroke-linecap:round;stroke-linejoin:round;stroke-miterlimit:10;}
	.st4{fill:#FFFFFF;}
</style>
<rect class="st0" width="186" height="26"/>
<path class="st1" d="M108.5,7.1l-5.3,5.8l5.3,5.5 M119.6,13h-15"/>
<g class="st0">
	<path class="st2" d="M5.1,22.5l1.6-5.7l9.1-9.3h10.6L24.9,13l-9.1,9.5H5.1z"/>
	<path class="st3" d="M26.4,7.5l-9.4,9l-1.6,5.6l9.5-9.5L26.4,7.5z"/>
	<path class="st2" d="M6.7,16.8H17"/>
</g>
<path class="st1" d="M48.7,7.5l8.6,7.6l-8.6,7.8C48.7,22.9,48.7,7.5,48.7,7.5z M38.4,7.5l8.6,7.6l-8.6,7.8V7.5z"/>
<path class="st1" d="M43.5,7.5l8.6,7.6l-8.6,7.8V7.5z"/>
<path class="st4" d="M54.6,14.2c0.1,0,0.1,0,0.2,0c0.7,0.1,1,0.6,0.9,1.3c-0.6,3.1-3.3,5.6-6.7,6.1V24c0,0.6-0.6,1.1-1.2,1.1l0,0
	l0,0c-0.6,0-1.2-0.5-1.2-1.1v-2.5c-3.3-0.5-6-2.9-6.6-6.1c0-0.1,0-0.1,0-0.2c0-0.6,0.6-1.1,1.2-1.1l0,0c0.6,0,1,0.4,1.2,0.9
	c0.5,2.2,2.2,3.8,4.5,4.2c3,0.5,5.9-1.4,6.5-4.2C53.6,14.6,54,14.2,54.6,14.2L54.6,14.2z M47.9,4.5c2.2,0,4,1.7,4,3.8v5.6
	c0,2.1-1.7,3.8-4,3.8s-4-1.7-4-3.8V8.3C43.9,6.1,45.6,4.5,47.9,4.5z"/>
<path class="st4" d="M26.6,15.1c0.8-0.8,0.8-2,0-2.7l-6.5-6.5c-0.8-0.8-2-0.8-2.7,0L7,16.3c-0.8,0.8-0.8,2,0,2.7l4,4
	c0.3,0.3,0.9,0.5,1.4,0.5h14.4c0.2,0,0.4-0.2,0.4-0.4v-1.6c0-0.2-0.2-0.4-0.4-0.4h-5.9L26.6,15.1L26.6,15.1z M14.4,12.6l5.5,5.5
	l-2.7,2.7h-4.7l-3.3-3.3L14.4,12.6L14.4,12.6z"/>
<path class="st4" d="M120.8,10.6l-3.3-3.3c-0.4-0.4-0.8-0.5-1.3-0.5h-10.5c-1,0-1.9,0.8-1.9,1.9v13.8c0,1,0.8,1.9,1.9,1.9h13.8
	c1,0,1.9-0.8,1.9-1.9V11.9C121.4,11.4,121.2,11,120.8,10.6z M112.6,21.8c-1.4,0-2.5-1.1-2.5-2.5s1.1-2.5,2.5-2.5s2.5,1.1,2.5,2.5
	C115.1,20.7,114,21.8,112.6,21.8z M116.4,9.9v3.9c0,0.3-0.2,0.5-0.5,0.5h-9.1c-0.3,0-0.5-0.2-0.5-0.5V9.7c0-0.3,0.2-0.5,0.5-0.5h8.9
	c0.1,0,0.2,0,0.3,0.1l0.1,0.1C116.3,9.6,116.4,9.8,116.4,9.9z"/>
</svg>
